PathFileType	4	(X/Y/Z)	Walk8.trc
DataRate	CameraRate	NumFrames	NumMarkers	Units	OrigDataRate	OrigDataStartFrame	OrigNumFrames
200.000000	200.000000	6	59	mm	200.000000	212	526
Frame#	Times		LFHD		RFHD		RBHD		C7		T10		CLAV		STRN		RBack		LASI		RASI		RPSI		RACR1		RUA1		RElbow		RFA1		RWRR		RWRU		RCAR		LACR1		LUA1		LFA1		LWRR		LCAR		RTH1		RTH3		RTH2		RTH4		RLFC		LTH1		LTH3		LTH2		LTH4		LLFC		LTB1		LTB3		LTB2		LTB4		LMMAL		LMT1		LMT5		LToe		LLMAL		RTB1		LPSI		LElbow		RTB2		RTB4		LBHD		RMT1		RToe		RTB3		RElbowM		LCAL		LElbowM		LWRU		RLMAL		RCAL		RMT5		RMMAL
			X1	Y1	Z1	X2	Y2	Z2	X3	Y3	Z3	X4	Y4	Z4	X5	Y5	Z5	X6	Y6	Z6	X7	Y7	Z7	X8	Y8	Z8	X9	Y9	Z9	X10	Y10	Z10	X11	Y11	Z11	X12	Y12	Z12	X13	Y13	Z13	X14	Y14	Z14	X15	Y15	Z15	X16	Y16	Z16	X17	Y17	Z17	X18	Y18	Z18	X19	Y19	Z19	X20	Y20	Z20	X21	Y21	Z21	X22	Y22	Z22	X23	Y23	Z23	X24	Y24	Z24	X25	Y25	Z25	X26	Y26	Z26	X27	Y27	Z27	X28	Y28	Z28	X29	Y29	Z29	X30	Y30	Z30	X31	Y31	Z31	X32	Y32	Z32	X33	Y33	Z33	X34	Y34	Z34	X35	Y35	Z35	X36	Y36	Z36	X37	Y37	Z37	X38	Y38	Z38	X39	Y39	Z39	X40	Y40	Z40	X41	Y41	Z41	X42	Y42	Z42	X43	Y43	Z43	X44	Y44	Z44	X45	Y45	Z45	X46	Y46	Z46	X47	Y47	Z47	X48	Y48	Z48	X49	Y49	Z49	X50	Y50	Z50	X51	Y51	Z51	X52	Y52	Z52	X53	Y53	Z53	X54	Y54	Z54	X55	Y55	Z55	X56	Y56	Z56	X57	Y57	Z57	X58	Y58	Z58	X59	Y59	Z59

212	1.06	-611.13	1570.7	-69.883	-603.63	1575.1	2.8021	-772.41	1531.3	42.444	-771.74	1402.6	-31.597	-800.07	1117.8	-31.486	-645.04	1326.8	-37.469	-567.08	1101.8	-31.165	-812.5	1296.7	66.184	-610.39	922.72	-156.81	-626.28	931.57	119.47	-830.24	965.37	27.888	-695.3	1336.6	136.18	-677.5	1128.7	201.79	-671.24	1021.4	229.36	-559.83	913.15	212.6	-503.64	832.12	161.16	-538.77	802.39	218.31	-479.63	788.44	206.49	-711.56	1337.3	-205.97	-767.26	1134.9	-249.36	-781.89	893.94	-281.61	-784.17	773.15	-248.79	-802.91	732.42	-290.51	-741.88	729.48	146.88	-773.11	548.16	102.44	-691.37	637.45	95.755	-758.15	638.8	122.77	-806.76	445.7	83.915	-669.1	722.3	-200.01	-607.13	548.9	-165.18	-577.81	657.71	-142.52	-637.39	631.44	-184.73	-576.23	449.8	-148.19	-511.66	370.18	-71.265	-462.8	188.62	-72.672	-513.4	272.61	-142.13	-484.98	278.26	-75.92	-448.51	87.323	-37.497	-312.67	87.227	-83.713	-347	52.289	-143.79	-279.21	95.501	-108.19	-462.46	65.311	-116.15	-828.65	321.07	4.1898	-825.69	953.41	-85.995	-806.73	1021.6	-257.78	-894.09	248.54	65.951	-880.71	243.78	-3.8692	-779.94	1534.7	-84.652	-872.14	34.677	-8.2077	-831.68	22.893	32.416	-931.64	167.49	-12.853	-699.08	992.26	153.14	-495.33	21.426	-57.93	-815.78	1008.7	-188.69	-839.93	785.2	-292.45	-1019.9	88.615	28.426	-1070.4	68.631	-23.66	-926.78	20.211	71.187	-991.86	99.142	-48.968
213	1.065	-605.23	1570.1	-70.462	-597.76	1574.5	2.2403	-766.46	1530.4	41.84	-765.59	1401.7	-32.269	-793.66	1116.9	-31.961	-638.81	1326.1	-38.068	-560.73	1101	-31.513	-806.34	1295.9	65.514	-603.74	921.93	-156.63	-620.26	930.65	119.35	-823.98	964.63	27.518	-689.17	1335.8	135.57	-671.51	1128	201.34	-665.51	1020.7	229.12	-554.12	912.38	212.51	-497.87	831.37	161.13	-533.04	801.66	218.28	-473.87	787.77	206.54	-705.3	1336.3	-206.61	-761.5	1134.1	-249.85	-776.98	893.12	-281.89	-779.47	772.41	-248.99	-798.46	731.65	-290.57	-736.21	728.69	146.64	-768.06	547.43	102.33	-686.05	636.47	95.501	-752.79	638.05	122.62	-802.31	445.2	83.764	-661.6	722.46	-199.86	-599.38	549.18	-164.94	-570.46	658.02	-141.91	-629.77	631.68	-184.48	-568.72	449.78	-148.01	-505.35	369.56	-70.772	-457.98	187.71	-72.09	-507.42	272.15	-141.71	-479.37	277.47	-75.362	-444.85	86.214	-37.039	-308.81	84.03	-82.733	-343.39	49.598	-143.12	-275.02	91.48	-107.03	-458.74	64.607	-115.8	-825.39	320.63	4.3715	-819.32	952.91	-86.396	-801.38	1020.9	-258.1	-891.65	248.99	66.183	-878.26	243.93	-3.6062	-773.99	1533.9	-85.253	-872.09	34.576	-8.2405	-831.69	22.897	32.349	-930.04	168.19	-12.467	-693.16	991.42	152.79	-492.71	21.596	-57.777	-810.41	1008.1	-189.01	-835.34	784.52	-292.51	-1019.1	90.305	28.889	-1069.8	70.974	-23.125	-926.71	20.222	71.088	-990.99	100.5	-48.484
214	1.07	-599.31	1569.6	-71.06	-591.87	1574	1.6616	-760.5	1529.5	41.214	-759.42	1401	-32.964	-787.22	1116.2	-32.421	-632.56	1325.3	-38.69	-554.33	1100.3	-31.885	-800.16	1295.1	64.82	-597.08	921.23	-156.49	-614.18	929.72	119.15	-817.69	963.93	27.185	-683	1335.1	134.93	-665.55	1127.4	200.87	-659.85	1020.1	228.85	-548.51	911.63	212.43	-492.21	830.62	161.12	-527.46	800.93	218.25	-468.27	787.07	206.61	-699.01	1335.4	-207.28	-755.68	1133.3	-250.35	-771.97	892.34	-282.18	-774.65	771.71	-249.21	-793.88	730.92	-290.64	-730.46	727.91	146.36	-762.86	546.7	102.19	-680.62	635.51	95.232	-747.3	637.3	122.43	-797.65	444.72	83.596	-654.06	722.74	-199.71	-591.58	549.58	-164.71	-563.03	658.45	-141.36	-622.1	632.04	-184.23	-561.18	449.86	-147.85	-499.11	368.98	-70.294	-453.45	186.79	-71.523	-501.58	271.74	-141.3	-473.93	276.7	-74.818	-441.61	85.094	-36.599	-305.38	80.55	-81.745	-340.25	46.735	-142.53	-271.22	87.072	-105.86	-455.47	63.928	-115.48	-821.95	320.23	4.5658	-812.96	952.52	-86.772	-795.94	1020.2	-258.44	-889.05	249.52	66.456	-875.67	244.14	-3.3035	-768.01	1533.1	-85.877	-872.05	34.468	-8.2683	-831.71	22.902	32.263	-928.31	168.98	-12.019	-687.3	990.65	152.42	-490.6	21.87	-57.667	-804.98	1007.4	-189.34	-830.63	783.86	-292.58	-1018.2	92.142	29.432	-1069.1	73.516	-22.496	-926.63	20.241	70.995	-990.03	101.98	-47.918
215	1.075	-593.38	1569.1	-71.676	-585.97	1573.5	1.0666	-754.52	1528.8	40.567	-753.22	1400.3	-33.68	-780.76	1115.5	-32.86	-626.28	1324.7	-39.332	-547.87	1099.7	-32.281	-793.95	1294.4	64.106	-590.39	920.6	-156.37	-608.04	928.78	118.88	-811.37	963.28	26.89	-676.79	1334.4	134.28	-659.62	1126.8	200.38	-654.25	1019.5	228.56	-543.01	910.89	212.34	-486.68	829.86	161.12	-522.03	800.2	218.22	-462.82	786.36	206.69	-692.71	1334.5	-207.96	-749.79	1132.5	-250.87	-766.86	891.62	-282.49	-769.71	771.06	-249.44	-789.17	730.24	-290.72	-724.62	727.16	146.05	-757.49	545.98	102.05	-675.05	634.59	94.943	-741.69	636.56	122.22	-792.77	444.24	83.413	-646.52	723.14	-199.56	-583.75	550.11	-164.48	-555.55	659.01	-140.86	-614.42	632.51	-183.99	-553.62	450.04	-147.72	-492.93	368.46	-69.835	-449.17	185.89	-70.976	-495.88	271.4	-140.92	-468.64	275.97	-74.293	-438.73	83.996	-36.181	-302.33	76.871	-80.753	-337.52	43.785	-142.03	-267.77	82.379	-104.68	-452.58	63.294	-115.18	-818.32	319.85	4.7712	-806.59	952.23	-87.12	-790.42	1019.5	-258.8	-886.26	250.14	66.771	-872.9	244.41	-2.959	-762.02	1532.3	-86.524	-872.03	34.353	-8.2915	-831.75	22.906	32.157	-926.45	169.88	-11.507	-681.51	989.95	152.01	-488.93	22.244	-57.6	-799.48	1006.8	-189.7	-825.8	783.25	-292.67	-1017.2	94.137	30.057	-1068.3	76.276	-21.771	-926.53	20.274	70.908	-988.96	103.59	-47.265
216	1.08	-587.42	1568.7	-72.308	-580.05	1573.1	0.45555	-748.53	1528.1	39.898	-746.99	1399.7	-34.414	-774.29	1114.9	-33.275	-619.97	1324.2	-39.991	-541.37	1099.1	-32.697	-787.71	1293.8	63.375	-583.7	920.07	-156.27	-601.85	927.85	118.53	-805.03	962.67	26.637	-670.56	1333.8	133.62	-653.73	1126.3	199.88	-648.71	1018.9	228.23	-537.63	910.17	212.25	-481.28	829.11	161.13	-516.76	799.48	218.18	-457.54	785.63	206.78	-686.38	1333.7	-208.66	-743.83	1131.8	-251.4	-761.64	890.94	-282.8	-764.65	770.46	-249.67	-784.34	729.61	-290.82	-718.68	726.43	145.71	-751.94	545.26	101.88	-669.34	633.71	94.631	-735.93	635.84	121.98	-787.63	443.76	83.216	-639.01	723.64	-199.41	-575.94	550.75	-164.24	-548.05	659.69	-140.43	-606.76	633.1	-183.76	-546.06	450.33	-147.63	-486.83	367.99	-69.402	-445.12	185.04	-70.452	-490.3	271.13	-140.58	-463.51	275.28	-73.79	-436.19	82.941	-35.784	-299.61	73.081	-79.762	-335.14	40.839	-141.64	-264.64	77.513	-103.5	-450.03	62.72	-114.91	-814.47	319.52	4.9872	-800.22	952.03	-87.44	-784.81	1018.9	-259.17	-883.26	250.84	67.13	-869.95	244.76	-2.5709	-756	1531.7	-87.193	-872.02	34.23	-8.3102	-831.81	22.908	32.028	-924.41	170.88	-10.928	-675.78	989.33	151.58	-487.61	22.705	-57.576	-793.91	1006.3	-190.07	-820.84	782.69	-292.78	-1016.1	96.301	30.767	-1067.3	79.27	-20.946	-926.42	20.329	70.83	-987.75	105.34	-46.522
217	1.085	-581.45	1568.4	-72.955	-574.12	1572.8	-0.17127	-742.51	1527.4	39.207	-740.74	1399.2	-35.163	-767.8	1114.4	-33.662	-613.64	1323.7	-40.664	-534.83	1098.7	-33.131	-781.44	1293.3	62.633	-577	919.64	-156.21	-595.62	926.91	118.09	-798.68	962.12	26.425	-664.29	1333.3	132.94	-647.86	1125.9	199.35	-643.24	1018.5	227.88	-532.36	909.48	212.16	-476.02	828.36	161.15	-511.66	798.76	218.14	-452.42	784.9	206.89	-680.03	1333	-209.37	-737.81	1131.2	-251.94	-756.32	890.33	-283.13	-759.47	769.92	-249.92	-779.38	729.03	-290.93	-712.63	725.72	145.34	-746.19	544.55	101.71	-663.47	632.88	94.294	-730.03	635.14	121.71	-782.22	443.3	83.009	-631.55	724.24	-199.28	-568.17	551.49	-164	-540.56	660.49	-140.09	-599.15	633.78	-183.53	-538.53	450.71	-147.56	-480.81	367.6	-68.997	-441.27	184.23	-69.953	-484.85	270.93	-140.27	-458.52	274.66	-73.315	-433.93	81.946	-35.405	-297.21	69.269	-78.774	-333.08	37.983	-141.38	-261.81	72.593	-102.33	-447.76	62.215	-114.65	-810.37	319.22	5.2151	-793.86	951.94	-87.732	-779.11	1018.3	-259.55	-880.02	251.63	67.537	-866.77	245.18	-2.1368	-749.97	1531.1	-87.884	-872.03	34.1	-8.324	-831.89	22.909	31.877	-922.19	172	-10.281	-670.11	988.8	151.11	-486.59	23.235	-57.593	-788.26	1005.8	-190.45	-815.76	782.17	-292.89	-1014.7	98.642	31.564	-1066.2	82.516	-20.022	-926.28	20.416	70.762	-986.37	107.25	-45.687
